<svg width="24" height="24" viewBox="0 0 24 24" fill="none" xmlns="http://www.w3.org/2000/svg">
<path d="M19.1069 4.69789C18.1371 1.93905 15.3355 0 12.0245 0C8.71347 0 5.91184 1.93905 4.89306 4.69789C2.19429 4.74698 0 6.79403 0 9.2927C0 11.487 1.78286 13.377 4.0751 13.7844V22.9789C4.0751 23.5386 4.53551 24 5.09388 24H18.9551C19.5135 24 19.9249 23.5386 19.9249 22.9789V13.7893C22.271 13.3819 24 11.541 24 9.29761C24 6.79403 21.8106 4.75189 19.1069 4.69789ZM19.0041 11.8994C18.4457 11.8994 17.9853 12.3608 17.9853 12.9204V22.0119H6.11265V12.9204C6.11265 12.3608 5.65224 11.8994 5.09388 11.8994C3.41388 11.8994 2.03755 10.7261 2.03755 9.2927C2.03755 7.86418 3.41388 6.68603 5.09388 6.68603C5.19673 6.68603 5.34857 6.73512 5.55429 6.73512C6.06367 6.78421 6.57306 6.43076 6.67592 5.92023C7.13633 3.62283 9.37469 1.98814 12.0245 1.98814C14.6743 1.98814 16.9176 3.67192 17.4269 5.92023C17.5298 6.43076 18.0392 6.78912 18.5486 6.73512C18.7004 6.68603 18.8522 6.68603 19.009 6.68603C20.689 6.68603 22.0653 7.85928 22.0653 9.2927C22.0653 10.7261 20.689 11.8994 19.0041 11.8994Z" fill="black"/>
<path d="M9.98691 15.2178C9.42855 15.2178 8.96814 15.6793 8.96814 16.2389V18.9977C8.96814 19.5574 9.42855 20.0188 9.98691 20.0188C10.4963 20.0188 10.9567 19.6114 11.0057 18.9977V16.2389C11.0057 15.6793 10.5502 15.2178 9.98691 15.2178Z" fill="black"/>
<path d="M14.0621 15.2178C13.5037 15.2178 13.0433 15.6793 13.0433 16.2389V18.9977C13.0433 19.5574 13.5037 20.0188 14.0621 20.0188C14.6204 20.0188 15.0808 19.6114 15.0808 18.9977V16.2389C15.0808 15.6793 14.6253 15.2178 14.0621 15.2178Z" fill="black"/>
</svg>
