<svg width="24" height="24" viewBox="0 0 24 24" fill="none" xmlns="http://www.w3.org/2000/svg">
<path fill-rule="evenodd" clip-rule="evenodd" d="M10.9222 0.0271143C8.54763 0.265781 6.36435 1.14033 4.51933 2.59195C4.01678 2.98733 2.8261 4.21155 2.4359 4.73399C0.64881 7.1269 -0.213432 10.1007 0.045002 12.9801C0.254491 15.3136 1.05108 17.4001 2.44568 19.2679C2.82755 19.7793 4.02183 21.0055 4.51933 21.3969C8.16922 24.2686 13.0978 24.8109 17.1924 22.7913C18.5538 22.1199 19.3364 21.5568 20.4224 20.4676C21.4407 19.4462 22.0281 18.6444 22.6414 17.439C23.3318 16.082 23.8012 14.4407 23.8907 13.0711C23.9075 12.8145 23.9391 12.6046 23.9609 12.6046C23.9828 12.6046 24.0004 12.3036 24 11.9358C23.9996 11.5625 23.9821 11.2941 23.9604 11.3284C23.9373 11.3648 23.9091 11.1988 23.8909 10.9206C23.8513 10.3154 23.6716 9.34329 23.4682 8.63471C23.0733 7.25931 22.409 5.93465 21.5055 4.72099C21.0767 4.14509 19.8005 2.86497 19.2263 2.4349C17.5388 1.17088 15.6121 0.373076 13.5674 0.0914629C12.952 0.00674432 11.4813 -0.0290675 10.9222 0.0271143ZM10.8755 1.43898C8.98991 1.63785 7.14269 2.37389 5.58839 3.54568C5.35242 3.72361 5.13095 3.90347 5.09628 3.94543C5.0405 4.01278 5.23488 4.22423 6.7611 5.75658C7.71145 6.71077 8.53116 7.49976 8.58263 7.5099C8.6341 7.52003 8.84008 7.55763 9.0404 7.59339L9.40454 7.65849L9.36963 7.44452C9.30918 7.07396 9.34422 6.40654 9.44497 6.01017C9.57196 5.51045 9.98168 4.69527 10.3532 4.20315C10.5188 3.98373 10.8644 3.59998 11.1211 3.35043C11.8805 2.61204 12.0696 2.61204 12.8291 3.35043C13.0858 3.59998 13.4313 3.98373 13.597 4.20315C13.9685 4.69527 14.3782 5.51045 14.5052 6.01017C14.606 6.40701 14.6409 7.07401 14.5803 7.44578L14.5452 7.66112L14.8628 7.58889C15.0888 7.53749 15.4501 7.51605 16.1162 7.5144C17.023 7.5122 17.0568 7.51548 17.2048 7.62142C17.4639 7.80672 17.5127 7.95775 17.5343 8.64034C17.5675 9.69089 17.3606 10.7372 16.9622 11.5336L16.7584 11.941L16.9389 11.9716C17.0382 11.9885 17.1731 12.0446 17.2388 12.0963C17.4563 12.268 17.5121 12.445 17.5341 13.0333C17.5682 13.9437 17.4157 14.9042 17.1194 15.6464L16.9774 16.0024L18.4416 17.4716C19.2469 18.2797 19.9208 18.9409 19.9392 18.9409C19.9575 18.9409 20.0872 18.7983 20.2273 18.6241C21.1093 17.5274 21.8736 15.9939 22.2237 14.6187C22.5833 13.2058 22.6442 11.4589 22.3821 10.0768C21.4975 5.4132 17.6862 1.89843 13.0112 1.43504C12.4527 1.3797 11.4196 1.38158 10.8755 1.43898ZM11.7574 4.68424C11.0877 5.41493 10.7378 6.17604 10.7378 6.90194C10.7378 7.6515 11.064 8.34929 11.795 9.16348L11.9713 9.35986L12.2103 9.09754C12.8775 8.36534 13.2124 7.6316 13.2124 6.90194C13.2124 6.3244 13.0478 5.85383 12.6298 5.23573C12.4341 4.94642 12.0326 4.48476 11.9767 4.48476C11.9566 4.48476 11.858 4.57451 11.7574 4.68424ZM3.68558 5.41174C1.62298 8.00647 0.90088 11.4848 1.75376 14.7167C2.00682 15.6754 2.4608 16.7269 2.99427 17.5897C3.81281 18.9135 5.07714 20.1817 6.39692 21.0027C9.86119 23.1579 14.1842 23.135 17.6446 20.9431C18.1225 20.6403 18.9003 20.0472 18.9003 19.9854C18.9003 19.9656 18.271 19.3184 17.5019 18.5472L16.1033 17.145L15.7366 17.3865C15.0172 17.8602 13.8551 18.1892 12.8992 18.1898L12.677 18.1899V19.3954C12.677 20.5167 12.6702 20.6149 12.5806 20.8007C12.4787 21.0116 12.1982 21.1938 11.9751 21.1938C11.752 21.1938 11.4714 21.0116 11.3696 20.8007C11.28 20.615 11.2732 20.5167 11.2732 19.4025V18.2041L10.8113 18.1737C10.1877 18.1327 9.66349 18.0277 9.13272 17.8373C7.55666 17.2723 6.68862 16.0613 6.45073 14.0956C6.37638 13.4812 6.41044 12.536 6.51409 12.3389C6.62002 12.1374 6.7947 12.0083 7.01121 11.9716L7.19173 11.941L6.9879 11.5336C6.58788 10.7339 6.38433 9.70512 6.41479 8.6371C6.43009 8.10213 6.44577 8.00253 6.53973 7.84272L6.64721 7.66L5.34582 6.35402C4.63004 5.63572 4.02871 5.04799 4.00957 5.04799C3.99039 5.04799 3.84458 5.21165 3.68558 5.41174ZM7.8245 9.32729C7.93465 11.205 8.93325 12.2059 10.8002 12.31L11.2865 12.3372L11.2533 11.9429C11.0829 9.91844 10.1979 9.04473 8.14255 8.87178L7.79605 8.84263L7.8245 9.32729ZM15.5063 8.89919C13.9872 9.04717 13.078 9.81978 12.8022 11.1969C12.7634 11.3903 12.7169 11.7261 12.6988 11.9431L12.6659 12.3376L13.1745 12.309C15.014 12.2053 16.0161 11.194 16.1255 9.33085L16.1537 8.84976L16.018 8.85615C15.9433 8.85967 15.7131 8.87905 15.5063 8.89919ZM0.014821 11.9944C0.014821 12.3688 0.0221206 12.5219 0.0310111 12.3347C0.0398549 12.1475 0.0398549 11.8413 0.0310111 11.6542C0.0221206 11.467 0.014821 11.6201 0.014821 11.9944ZM7.82296 13.7381C7.93994 15.6607 8.91809 16.6563 10.7997 16.7679L11.2856 16.7967L11.2519 16.4255C11.0644 14.3575 10.2214 13.5124 8.16604 13.3318L7.79624 13.2993L7.82296 13.7381ZM15.4872 13.3613C13.6887 13.5703 12.8762 14.463 12.6982 16.4255L12.6646 16.7967L13.1504 16.7679C14.0632 16.7137 14.8203 16.4232 15.2978 15.9438C15.7674 15.4724 16.068 14.681 16.1252 13.7663L16.1537 13.3086L15.9946 13.3147C15.907 13.3181 15.6787 13.339 15.4872 13.3613Z" fill="black"/>
</svg>
