<svg width="24" height="24" viewBox="0 0 24 24" fill="none" xmlns="http://www.w3.org/2000/svg">
<path fill-rule="evenodd" clip-rule="evenodd" d="M11.1607 0.0372417C10.8673 0.0558861 10.538 0.0913706 10.4289 0.116115C10.3198 0.14086 10.0465 0.191509 9.82162 0.228626C7.90934 0.54442 5.95215 1.45129 4.36061 2.75906C3.97736 3.074 3.10561 3.92812 2.87389 4.21581C2.7816 4.33039 2.67338 4.45604 2.63343 4.49505C2.5253 4.6006 1.99043 5.37039 1.7185 5.8118C1.36048 6.39304 1.03728 7.06574 0.748393 7.83089C0.411247 8.72384 0.229502 9.47572 0.0423324 10.7521C-0.0144039 11.1391 -0.0140164 12.8952 0.042935 13.2867C0.279824 14.9162 0.610426 16.0501 1.20784 17.282C2.60743 20.1679 5.20059 22.4131 8.29345 23.4168C10.2523 24.0524 12.3335 24.1695 14.4492 23.763C15.1813 23.6224 16.338 23.2434 17.003 22.9263C17.2948 22.7872 17.5419 22.6734 17.5522 22.6734C17.5898 22.6734 18.5916 22.0592 18.9136 21.8389C19.6658 21.324 20.709 20.3574 21.3279 19.6018C21.6258 19.238 22.1961 18.4094 22.3922 18.0552C22.4707 17.9135 22.5579 17.7685 22.586 17.733C22.7226 17.5605 23.2041 16.4254 23.4299 15.7435C23.85 14.475 24.003 13.464 24 11.9765C23.9969 10.4871 23.8417 9.49973 23.409 8.21752C23.188 7.56265 22.7312 6.50198 22.5684 6.26592C22.5266 6.20518 22.4175 6.02015 22.3262 5.85476C21.694 4.71045 20.3206 3.20618 19.0983 2.31933C18.6414 1.98786 17.7319 1.44472 17.2257 1.20114C15.8997 0.562936 14.2348 0.128445 12.7488 0.032817C12.0555 -0.0118178 11.9283 -0.0114742 11.1607 0.0372417ZM10.6385 1.47286C9.8574 1.58167 9.08108 1.75149 8.68087 1.90099C8.53882 1.95409 8.27731 2.05161 8.09974 2.11768C6.92614 2.55453 5.36977 3.56528 4.45235 4.48641C3.7239 5.2178 2.98883 6.24607 2.4915 7.22946C2.1773 7.85069 1.81024 8.8312 1.67128 9.42039C1.38282 10.6436 1.26931 12.0293 1.38553 12.9091C1.5684 14.2937 1.69715 14.8645 2.01807 15.7139C3.00092 18.3154 4.92643 20.4218 7.4062 21.6084C8.02828 21.9061 9.14432 22.2913 9.74388 22.4153C10.7836 22.6303 12.2409 22.6925 13.3087 22.5674C15.1481 22.352 16.9214 21.6356 18.4526 20.4893C19.0095 20.0724 20.0857 18.9949 20.5155 18.4239C21.419 17.2234 22.1228 15.7004 22.4318 14.2768C22.7127 12.9831 22.7219 11.1689 22.4543 9.8395C22.343 9.28635 21.9673 8.16567 21.697 7.58091C21.2948 6.71059 20.7083 5.79032 20.1351 5.13012C19.5301 4.43336 18.6144 3.61348 18.0014 3.21963C17.8707 3.13569 17.6491 2.99272 17.5089 2.90194C17.1731 2.68448 16.2065 2.21129 15.8267 2.07837C15.661 2.02038 15.4188 1.9339 15.2886 1.88621C14.5202 1.60487 12.9609 1.36357 11.9525 1.36993C11.5779 1.37229 11.0806 1.41125 10.6385 1.47286ZM11.7259 2.90912C11.4933 3.01703 10.7438 3.76143 10.3821 4.24378C10.0322 4.71041 9.63932 5.45713 9.51199 5.89772C9.42585 6.19581 9.41268 6.33723 9.41268 6.96427V7.68715L9.30506 7.66545C8.31437 7.4656 7.5616 7.46685 6.90535 7.66936C6.60191 7.76301 6.51405 7.86736 6.45813 8.20021C6.40152 8.53731 6.43902 9.58565 6.52485 10.0648C6.61078 10.5445 6.86523 11.2932 7.06703 11.6601L7.23703 11.9692L7.06673 11.9979C6.84646 12.0351 6.64194 12.1745 6.53084 12.3632C6.45025 12.5001 6.44259 12.582 6.4444 13.2867C6.44659 14.1546 6.49782 14.5563 6.68422 15.1665C7.118 16.587 7.89139 17.4079 9.22826 17.8669C9.7924 18.0606 10.2197 18.1441 10.8655 18.1867L11.3283 18.2173V19.4157C11.3283 20.7042 11.3421 20.8009 11.5577 21.016C11.7023 21.1603 11.9723 21.2281 12.18 21.1723C12.3785 21.1189 12.6062 20.894 12.6635 20.6947C12.6868 20.6137 12.7058 20.0233 12.7058 19.3827V18.2179L13.147 18.1886C13.9213 18.1371 14.5233 17.9968 15.2136 17.7069C15.9353 17.4037 16.7676 16.6074 17.0589 15.9415C17.2321 15.5454 17.3582 15.1297 17.4731 14.5755C17.5718 14.0996 17.5891 13.9091 17.5901 13.2867C17.5914 12.5885 17.5868 12.5483 17.4856 12.3717C17.3659 12.1629 17.1933 12.0406 16.9567 11.9968C16.776 11.9634 16.768 11.9485 16.8599 11.8175C17.0937 11.4845 17.3084 10.8923 17.472 10.1298C17.5715 9.66577 17.5876 9.48843 17.5895 8.83339L17.5916 8.07455L17.4625 7.89232C17.2062 7.53073 17.2035 7.52996 16.2217 7.53193C15.6676 7.53305 15.2597 7.55423 15.0949 7.59044C14.9529 7.62163 14.7882 7.65617 14.729 7.66713L14.6214 7.68715L14.6196 6.94279C14.6179 6.2081 14.6161 6.19341 14.475 5.8118C14.1017 4.80174 13.6844 4.17208 12.8574 3.37097C12.3143 2.84477 12.075 2.74712 11.7259 2.90912ZM11.795 4.66616C10.9201 5.63755 10.5875 6.547 10.7855 7.42647C10.9049 7.9565 11.2923 8.62916 11.8 9.18789L12.0113 9.42039L12.2079 9.20559C12.316 9.08745 12.4572 8.91346 12.5217 8.81895C12.5861 8.72444 12.6839 8.59135 12.7389 8.52322C12.9839 8.22019 13.2589 7.49434 13.2942 7.05762C13.3385 6.51027 13.059 5.734 12.5912 5.10533C12.3378 4.76479 12.0637 4.45858 12.0123 4.45858C11.9956 4.45858 11.8978 4.55197 11.795 4.66616ZM7.81235 8.90913C7.77258 9.01249 7.83315 9.81707 7.90094 10.0863C7.99978 10.4788 8.17955 10.911 8.34347 11.1501C8.86309 11.9081 9.75077 12.3219 10.9624 12.3707L11.3068 12.3846L11.2967 11.9574C11.2802 11.2568 11.038 10.4826 10.6834 9.9966C10.2308 9.37635 9.46227 9.00398 8.39198 8.88636C7.85437 8.82729 7.84365 8.82772 7.81235 8.90913ZM15.5475 8.88893C15.0909 8.93769 14.3024 9.18029 14.0212 9.35857C13.6442 9.59755 13.2985 9.98483 13.1029 10.3875C13.0052 10.5886 12.8949 10.8689 12.8578 11.0104C12.7752 11.3249 12.6795 12.2328 12.7183 12.3336C12.7426 12.3967 12.79 12.4034 13.0597 12.3822C13.5502 12.3436 13.9347 12.2826 14.158 12.2082C14.5324 12.0835 15.0493 11.8181 15.2379 11.654C15.8234 11.1442 16.1633 10.3017 16.1997 9.27003L16.2141 8.86191L16.0635 8.8559C15.9806 8.85263 15.7484 8.86745 15.5475 8.88893ZM7.81265 13.7851C7.86689 14.744 8.16878 15.5207 8.67648 16.0072C9.13649 16.448 9.91228 16.7525 10.75 16.821C11.0089 16.8422 11.2474 16.85 11.2801 16.8384C11.3608 16.8098 11.3133 16.1683 11.1935 15.671C11.0446 15.0525 10.8783 14.6809 10.6062 14.3593C10.2773 13.9706 9.97479 13.7685 9.45572 13.5909C8.96598 13.4233 8.7058 13.3699 8.16517 13.3261L7.78498 13.2953L7.81265 13.7851ZM15.6976 13.3359C14.9565 13.4318 14.3399 13.62 13.9674 13.8641C13.2793 14.3149 12.8789 15.0505 12.7504 16.0995C12.6978 16.5284 12.693 16.819 12.7381 16.843C12.7559 16.8525 12.9731 16.8443 13.2208 16.8249C13.7004 16.7874 14.4207 16.6003 14.7746 16.4214C15.2431 16.1846 15.6584 15.7434 15.8782 15.2487C16.031 14.9049 16.1854 14.1716 16.201 13.7163L16.2141 13.3297L16.0204 13.3244C15.9139 13.3215 15.7686 13.3267 15.6976 13.3359Z" fill="black"/>
</svg>
