<svg width="24" height="15" viewBox="0 0 24 15" fill="none" xmlns="http://www.w3.org/2000/svg">
<path fill-rule="evenodd" clip-rule="evenodd" d="M0.727384 0.0270681C0.458996 0.069841 0.293732 0.16695 0.14069 0.371931C0.0154731 0.539639 -0.0312482 1.45287 0.0212075 2.70828C0.140455 5.56302 0.812366 7.99896 2.01828 9.94842C3.38156 12.1524 5.56524 13.6313 8.57166 14.3868C9.9357 14.7295 11.057 14.8719 12.708 14.912L13.8595 14.9399L10.3514 11.421C8.42191 9.48563 6.81727 7.85137 6.78549 7.78933C6.68735 7.59784 6.71339 7.23991 6.83889 7.05443C7.03033 6.77157 7.40885 6.64057 7.7108 6.75272C7.78488 6.78022 9.39958 8.35732 11.3801 10.3366L14.9171 13.8713V12.9284C14.9171 8.88629 13.7142 5.40325 11.5949 3.30921C10.8434 2.5667 10.1038 2.04205 9.09702 1.53738C7.57585 0.774843 6.03217 0.338559 4.01235 0.100393C3.28887 0.0150821 1.1082 -0.0336131 0.727384 0.0270681ZM21.7326 4.45332C19.3112 4.57059 17.2889 5.33952 15.8657 6.68409L15.5218 7.00907L15.7123 7.66938C15.9926 8.64112 16.326 10.3982 16.327 10.9089C16.3272 11.0369 16.412 10.9642 17.3495 10.032C18.1978 9.18847 18.4059 9.0054 18.5716 8.95661C19.0956 8.80239 19.6045 9.28361 19.5021 9.83651C19.4728 9.99486 19.2805 10.2066 17.9501 11.5449L16.4316 13.0725L16.408 13.8245C16.3949 14.2382 16.3602 14.6377 16.3309 14.7124C16.3016 14.787 16.2834 14.8527 16.2906 14.8582C16.3369 14.8938 17.6339 14.6629 18.1603 14.5254C19.6539 14.1353 20.7995 13.5173 21.69 12.6212C23.2161 11.0856 23.9943 8.84403 23.9998 5.96781C24.0014 5.13482 23.9938 5.05162 23.8983 4.8543C23.706 4.45708 23.2808 4.37835 21.7326 4.45332Z" fill="black"/>
</svg>
