<svg width="24" height="24" viewBox="0 0 24 24" fill="none" xmlns="http://www.w3.org/2000/svg">
<g clip-path="url(#clip0_431_241)">
<path d="M23.8581 10.0799C23.4234 9.51987 22.9889 8.95995 22.5441 8.40995C21.8768 7.55995 21.1995 6.71989 20.5222 5.84989C20.254 5.46314 20.1035 5.00856 20.0878 4.53983C20.0777 4.38332 20.0777 4.22661 20.0878 4.0701C20.0878 3.5701 20.0878 3.07008 20.0878 2.55008V1.05985C20.1046 0.809723 20.0729 0.55895 19.9959 0.320104L19.8548 0.150182C19.6079 0.0171613 19.325 -0.0357258 19.0462 -0.000208748H5.73204C4.81208 -0.000208748 4.72054 0.149791 4.65988 0.999791C4.65988 1.52979 4.65988 2.06012 4.65988 2.59012C4.65988 3.12012 4.65988 3.52026 4.65988 3.98026C4.65988 4.17026 4.65988 4.36008 4.65988 4.55008C4.63771 4.91263 4.50843 5.26057 4.2867 5.55008C3.27574 6.77008 2.26471 7.95995 1.17288 9.15995L0.353461 10.1599C0.15613 10.3946 0.0392244 10.6854 0.0197678 10.99C0.0197678 14.87 0.0197678 18.7502 0.0197678 22.6302C0.153769 22.9214 0.350961 23.1796 0.597314 23.387C0.843666 23.5944 1.1333 23.7456 1.44537 23.8299C1.77239 23.9307 2.11388 23.9781 2.45632 23.97H11.8886H21.2498C21.8167 23.9881 22.3788 23.8571 22.8777 23.5901C23.2818 23.3435 23.6077 22.9899 23.8186 22.5691C24.0295 22.1484 24.1165 21.6776 24.0704 21.2102V10.2698C24.0053 10.2005 23.9343 10.137 23.8581 10.0799ZM21.9981 10.0799H16.4379L19.4707 6.74979L21.9981 10.0799ZM6.09535 2.63993V1.46024H18.672V4.86991H6.09535V2.63993ZM14.0418 11.18C14.0418 14.98 14.0418 18.7701 14.0418 22.5701H13.5975H13.7891C13.5565 22.5701 13.3952 22.5701 13.2234 22.5701H2.47705C2.296 22.5912 2.11214 22.5747 1.93801 22.5213C1.76388 22.4679 1.60334 22.3787 1.4661 22.26V11.99C1.4661 11.87 1.4661 11.76 1.4661 11.51H9.09859C9.60407 11.51 9.97772 11.3498 9.95751 10.7698C9.93729 10.1898 9.56363 10.1099 9.09859 10.1199H2.28454C3.39658 8.81991 4.39703 7.64979 5.41809 6.49979C5.56183 6.37929 5.74607 6.31554 5.93443 6.3201H17.8023C16.9227 7.3201 16.1046 8.21014 15.3262 9.11014L14.5374 10.0301C14.2513 10.3427 14.077 10.7397 14.0418 11.1599V11.18ZM21.1688 22.5799H15.5276V11.5799H22.5036V21.24C22.5036 22.33 22.3011 22.5599 21.1688 22.5599V22.5799Z" fill="black"/>
</g>
<defs>
<clipPath id="clip0_431_241">
<rect width="24" height="24" fill="white"/>
</clipPath>
</defs>
</svg>
