<svg width="24" height="24" viewBox="0 0 24 24" fill="none" xmlns="http://www.w3.org/2000/svg">
<g clip-path="url(#clip0_469_122)">
<path d="M12 0C5.373 0 0 5.373 0 12C0 18.627 5.373 24 12 24C18.627 24 24 18.627 24 12C24 5.373 18.627 0 12 0ZM22 12C22 14.397 21.15 16.6 19.738 18.324L5.676 4.262C7.4 2.85 9.603 2 12 2C17.514 2 22 6.486 22 12ZM2 12C2 9.603 2.85 7.4 4.262 5.676L18.324 19.738C16.6 21.15 14.397 22 12 22C6.486 22 2 17.514 2 12Z" fill="black"/>
<g clip-path="url(#clip1_469_122)">
<path d="M19.9054 9.71991C19.6156 9.34658 19.3259 8.9733 19.0294 8.60663C18.5845 8.03997 18.133 7.47993 17.6814 6.89993C17.5026 6.64209 17.4023 6.33904 17.3918 6.02656C17.3851 5.92222 17.3851 5.81774 17.3918 5.7134C17.3918 5.38007 17.3918 5.04673 17.3918 4.70006V3.70657C17.4031 3.53982 17.3819 3.37264 17.3306 3.21341L17.2365 3.10012C17.0719 3.01144 16.8834 2.97619 16.6975 2.99986H7.82136C7.20805 2.99986 7.14702 3.09986 7.10658 3.66653C7.10658 4.01986 7.10658 4.37342 7.10658 4.72675C7.10658 5.08008 7.10658 5.34684 7.10658 5.65351C7.10658 5.78018 7.10658 5.90673 7.10658 6.03339C7.0918 6.27509 7.00561 6.50705 6.85779 6.70006C6.18383 7.51339 5.50981 8.30663 4.78192 9.10663L4.23564 9.7733C4.10408 9.92976 4.02615 10.1236 4.01318 10.3267C4.01318 12.9134 4.01318 15.5001 4.01318 18.0868C4.10251 18.2809 4.23397 18.4531 4.39821 18.5913C4.56244 18.7296 4.75553 18.8304 4.96358 18.8866C5.18159 18.9538 5.40925 18.9854 5.63754 18.98H11.9257H18.1665C18.5445 18.992 18.9192 18.9047 19.2518 18.7268C19.5212 18.5623 19.7385 18.3266 19.8791 18.0461C20.0197 17.7656 20.0777 17.4517 20.0469 17.1402V9.84654C20.0035 9.80036 19.9562 9.75802 19.9054 9.71991ZM18.6654 9.71991H14.9586L16.9805 7.49986L18.6654 9.71991ZM8.06357 4.75995V3.9735H16.448V6.24661H8.06357V4.75995ZM13.3612 10.4533C13.3612 12.9866 13.3612 15.5134 13.3612 18.0467H13.065H13.1927C13.0377 18.0467 12.9301 18.0467 12.8156 18.0467H5.65137C5.53066 18.0608 5.40809 18.0498 5.292 18.0142C5.17592 17.9786 5.06889 17.9192 4.9774 17.84V10.9934C4.9774 10.9134 4.9774 10.84 4.9774 10.6734H10.0657C10.4027 10.6734 10.6518 10.5665 10.6383 10.1799C10.6249 9.79321 10.3757 9.73994 10.0657 9.74661H5.52302C6.26439 8.87994 6.93135 8.09986 7.61206 7.3332C7.70788 7.25286 7.83071 7.21036 7.95628 7.2134H15.8682C15.2818 7.88007 14.7364 8.47343 14.2175 9.07343L13.6916 9.68671C13.5009 9.89514 13.3847 10.1598 13.3612 10.44V10.4533ZM18.1125 18.0532H14.3517V10.7199H19.0024V17.16C19.0024 17.8867 18.8674 18.0399 18.1125 18.0399V18.0532Z" fill="black"/>
</g>
</g>
<defs>
<clipPath id="clip0_469_122">
<rect width="24" height="24" fill="white"/>
</clipPath>
<clipPath id="clip1_469_122">
<rect width="16" height="16" fill="white" transform="translate(4 3)"/>
</clipPath>
</defs>
</svg>
